<svg xmlns="http://www.w3.org/2000/svg" viewBox="0 0 240 160" role="img" aria-label="Tea">
  <defs>
    <linearGradient id="bg" x1="0" x2="1" y1="0" y2="1">
      <stop offset="0" stop-color="#d8f3d2"/>
      <stop offset="1" stop-color="#9bd08f"/>
    </linearGradient>
  </defs>
  <rect width="240" height="160" rx="20" fill="url(#bg)"/>
  <path d="M66 64h108v16a38 38 0 0 1-38 38h-32a38 38 0 0 1-38-38z" fill="#f7fff3"/>
  <path d="M174 72h18a13 13 0 0 1 0 26h-18" fill="none" stroke="#f7fff3" stroke-width="10"/>
  <path d="M84 52c8 8 6 16 0 24M108 48c8 8 6 16 0 24M132 52c8 8 6 16 0 24" fill="none" stroke="#5a8e4e" stroke-linecap="round" stroke-width="4"/>
  <circle cx="98" cy="92" r="8" fill="#8bcf7b"/>
  <circle cx="120" cy="98" r="7" fill="#7bbf6d"/>
</svg>
